<svg xmlns="http://www.w3.org/2000/svg" xmlns:xlink="http://www.w3.org/1999/xlink" width="94" height="100" viewBox="0 0 94 100"><defs><path id="z" d="M10.258 7.143a6.73 6.73 0 0 1-.043-.76C10.215 2.859 12.953 0 16.331 0c3.378 0 6.116 2.858 6.116 6.384 0 .257-.015.51-.043.759h7.183c.78 0 1.413.647 1.413 1.412v7.033c0 .78-.62 1.412-1.413 1.412H1.413C.633 17 0 16.353 0 15.588V8.555c0-.78.62-1.412 1.413-1.412h8.845z"></path><path id="c" d="M1.352 9.852a1.352 1.352 0 0 1 0-2.704c3.196 0 5.796-2.6 5.796-5.796a1.352 1.352 0 0 1 2.704 0c0 3.196 2.6 5.796 5.796 5.796a1.352 1.352 0 0 1 0 2.704 5.802 5.802 0 0 0-5.796 5.796 1.352 1.352 0 0 1-2.704 0c0-3.196-2.6-5.796-5.796-5.796zM8.5 5.948A8.565 8.565 0 0 1 5.948 8.5 8.567 8.567 0 0 1 8.5 11.052 8.566 8.566 0 0 1 11.052 8.5 8.567 8.567 0 0 1 8.5 5.948z"></path><path id="e" d="M5 10c-2.757 0-5-2.243-5-5s2.243-5 5-5 5 2.243 5 5-2.243 5-5 5zm0-6.785c-.985 0-1.785.8-1.785 1.785 0 .985.8 1.786 1.785 1.786.985 0 1.785-.801 1.785-1.786 0-.984-.8-1.785-1.785-1.785z"></path><path id="g" d="M4 0c2.206 0 4 1.794 4 4S6.206 8 4 8 0 6.206 0 4s1.794-4 4-4zm0 5.428A1.43 1.43 0 0 0 5.428 4 1.43 1.43 0 0 0 4 2.572 1.43 1.43 0 0 0 2.572 4c0 .787.64 1.428 1.428 1.428z"></path><path id="i" d="M1.5 3a1.5 1.5 0 1 1 0-3 1.5 1.5 0 0 1 0 3z"></path><path id="k" d="M1.5 3a1.5 1.5 0 1 1 0-3 1.5 1.5 0 0 1 0 3z"></path></defs><g fill="none" fill-rule="evenodd"><g stroke-linecap="round" stroke-linejoin="round"><path stroke="#E0EAEC" stroke-width="3" d="M25.045 98h47.91C76.845 98 80 94.857 80 90.98V32.02c0-3.877-3.154-7.02-7.045-7.02h-47.91C21.155 25 18 28.143 18 32.02v58.96c0 3.877 3.154 7.02 7.045 7.02z" data-darkreader-inline-stroke="" style="--darkreader-inline-stroke: var(--darkreader-text-e0eaec, #cadbde);"></path><path stroke="#E0EAEC" stroke-width="2" d="M44.773 47.462h22.545M44.773 62.904h21.136M44.773 78.346h22.545" data-darkreader-inline-stroke="" style="--darkreader-inline-stroke: var(--darkreader-text-e0eaec, #cadbde);"></path><path stroke="#C1DEDA" stroke-width="1.5" d="M27.864 44.654l7.045 7.02M27.864 51.673l7.045-7.02M27.864 63.837l2.116 1.875 6.338-5.616M27.864 77.875l2.116 1.875 6.338-5.615" data-darkreader-inline-stroke="" style="--darkreader-inline-stroke: var(--darkreader-text-c1deda, #b2d6d1);"></path></g><g transform="translate(34 14)"><mask id="b" fill="#fff" data-darkreader-inline-fill="" style="--darkreader-inline-fill: var(--darkreader-text-ffffff, #e8e6e3);"><use xlink:href="#z"></use></mask><path fill="#E0EAEC" d="M-7.045 24.083h45.09V-7.083h-45.09z" mask="url(#b)" data-darkreader-inline-fill="" style="--darkreader-inline-fill: var(--darkreader-background-e0eaec, #1f2f32);"></path></g><g transform="translate(69 3)"><mask id="d" fill="#fff" data-darkreader-inline-fill="" style="--darkreader-inline-fill: var(--darkreader-text-ffffff, #e8e6e3);"><use xlink:href="#c"></use></mask><path fill="#E0EAEC" d="M-7.083 24.083h31.166V-7.083H-7.083z" mask="url(#d)" data-darkreader-inline-fill="" style="--darkreader-inline-fill: var(--darkreader-text-e0eaec, #cadbde);"></path></g><g transform="translate(84 20)"><mask id="f" fill="#fff" data-darkreader-inline-fill="" style="--darkreader-inline-fill: var(--darkreader-text-ffffff, #e8e6e3);"><use xlink:href="#e"></use></mask><path fill="#C1DEDA" d="M-7.143 17.143h24.286V-7.143H-7.143z" mask="url(#f)" data-darkreader-inline-fill="" style="--darkreader-inline-fill: var(--darkreader-text-c1deda, #b2d6d1);"></path></g><g transform="translate(1 88)"><mask id="h" fill="#fff" data-darkreader-inline-fill="" style="--darkreader-inline-fill: var(--darkreader-text-ffffff, #e8e6e3);"><use xlink:href="#g"></use></mask><path fill="#E0EAEC" d="M-6.667 14.667h21.334V-6.667H-6.667z" mask="url(#h)" data-darkreader-inline-fill="" style="--darkreader-inline-fill: var(--darkreader-text-e0eaec, #cadbde);"></path></g><g transform="translate(0 81)"><mask id="j" fill="#fff" data-darkreader-inline-fill="" style="--darkreader-inline-fill: var(--darkreader-text-ffffff, #e8e6e3);"><use xlink:href="#i"></use></mask><path fill="#C1DEDA" d="M-7.5 10.5h18v-18h-18z" mask="url(#j)" data-darkreader-inline-fill="" style="--darkreader-inline-fill: var(--darkreader-text-c1deda, #b2d6d1);"></path></g><g transform="translate(87)"><mask id="l" fill="#fff" data-darkreader-inline-fill="" style="--darkreader-inline-fill: var(--darkreader-text-ffffff, #e8e6e3);"><use xlink:href="#k"></use></mask><path fill="#C1DEDA" d="M-7.5 10.5h18v-18h-18z" mask="url(#l)" data-darkreader-inline-fill="" style="--darkreader-inline-fill: var(--darkreader-text-c1deda, #b2d6d1);"></path></g></g></svg>